# xmcd
#
# Track frame offsets:
# 150
# 20873
# 39046
# 56322
# 73462
# 91222
# 110118
# 125268
# 143918
# 161988
# 179625
# 195893
# 213098
# 228236
#
# Disc length: 3268 seconds
#
#
# Revision: 0
# Processed by: cddbd v1.5.1PL2 Copyright (c) Steve Scherf et al.
# Submitted via: FreeRIP 2.942 
#
DISCID=c40cc20e
DTITLE=Carrie Underwood - Some Hearts
DYEAR=2005
DGENRE=Country
TTITLE0=Wasted
TTITLE1=Don't Forget to Remember Me
TTITLE2=Some Hearts
TTITLE3=Jesus, Take the Wheel
TTITLE4=The Night Before (Life Goes On)
TTITLE5=Lessons Learned
TTITLE6=Before He Cheats
TTITLE7=Starts With Goodbye
TTITLE8=I Just Can't Live a Lie
TTITLE9=We're Young and Beautiful
TTITLE10=That's Where It Is
TTITLE11=Whenever You Remember
TTITLE12=I Ain't In Checotah Anymore
TTITLE13=Inside Your Heaven
EXTD=
EXTT0=
EXTT1=
EXTT2=
EXTT3=
EXTT4=
EXTT5=
EXTT6=
EXTT7=
EXTT8=
EXTT9=
EXTT10=
EXTT11=
EXTT12=
EXTT13=
PLAYORDER=
